<mxfile host="app.diagrams.net" agent="Mozilla/5.0 (Windows NT 10.0; Win64; x64) AppleWebKit/537.36 (KHTML, like Gecko) Chrome/130.0.0.0 Safari/537.36" version="24.8.4">
  <diagram name="Page-1" id="Bgb97YGbCtU0m_07rp5P">
    <mxGraphModel dx="6647" dy="3231" grid="1" gridSize="10" guides="1" tooltips="1" connect="1" arrows="1" fold="1" page="1" pageScale="1" pageWidth="850" pageHeight="1100" math="0" shadow="0">
      <root>
        <mxCell id="0" />
        <mxCell id="1" parent="0" />
        <mxCell id="AsIc4sM-tZZTkLltl2zV-2" style="edgeStyle=orthogonalEdgeStyle;rounded=0;orthogonalLoop=1;jettySize=auto;html=1;entryX=0.5;entryY=0;entryDx=0;entryDy=0;" edge="1" parent="1" source="AsIc4sM-tZZTkLltl2zV-3" target="AsIc4sM-tZZTkLltl2zV-16">
          <mxGeometry relative="1" as="geometry" />
        </mxCell>
        <mxCell id="AsIc4sM-tZZTkLltl2zV-3" value="Bắt đầu" style="rounded=1;whiteSpace=wrap;html=1;fontSize=12;glass=0;strokeWidth=1;shadow=0;" vertex="1" parent="1">
          <mxGeometry x="345.01" y="-240" width="120" height="40" as="geometry" />
        </mxCell>
        <mxCell id="AsIc4sM-tZZTkLltl2zV-6" style="edgeStyle=orthogonalEdgeStyle;rounded=0;orthogonalLoop=1;jettySize=auto;html=1;entryX=0.5;entryY=0;entryDx=0;entryDy=0;" edge="1" parent="1" source="AsIc4sM-tZZTkLltl2zV-7" target="AsIc4sM-tZZTkLltl2zV-12">
          <mxGeometry relative="1" as="geometry" />
        </mxCell>
        <mxCell id="AsIc4sM-tZZTkLltl2zV-7" value="Kiểm tra kết nối" style="rhombus;whiteSpace=wrap;html=1;shadow=0;fontFamily=Helvetica;fontSize=12;align=center;strokeWidth=1;spacing=6;spacingTop=-4;" vertex="1" parent="1">
          <mxGeometry x="333.14" y="-90" width="143.75" height="70" as="geometry" />
        </mxCell>
        <mxCell id="AsIc4sM-tZZTkLltl2zV-8" style="edgeStyle=orthogonalEdgeStyle;rounded=0;orthogonalLoop=1;jettySize=auto;html=1;entryX=0.5;entryY=0;entryDx=0;entryDy=0;" edge="1" parent="1" source="AsIc4sM-tZZTkLltl2zV-12">
          <mxGeometry relative="1" as="geometry">
            <mxPoint x="404.9899999999998" y="190" as="targetPoint" />
          </mxGeometry>
        </mxCell>
        <mxCell id="AsIc4sM-tZZTkLltl2zV-9" value="Có" style="edgeLabel;html=1;align=center;verticalAlign=middle;resizable=0;points=[];" vertex="1" connectable="0" parent="AsIc4sM-tZZTkLltl2zV-8">
          <mxGeometry x="-0.2469" y="1" relative="1" as="geometry">
            <mxPoint as="offset" />
          </mxGeometry>
        </mxCell>
        <mxCell id="AsIc4sM-tZZTkLltl2zV-10" style="edgeStyle=orthogonalEdgeStyle;rounded=0;orthogonalLoop=1;jettySize=auto;html=1;entryX=0.5;entryY=0;entryDx=0;entryDy=0;" edge="1" parent="1" source="AsIc4sM-tZZTkLltl2zV-12" target="AsIc4sM-tZZTkLltl2zV-14">
          <mxGeometry relative="1" as="geometry" />
        </mxCell>
        <mxCell id="AsIc4sM-tZZTkLltl2zV-11" value="Chưa" style="edgeLabel;html=1;align=center;verticalAlign=middle;resizable=0;points=[];" vertex="1" connectable="0" parent="AsIc4sM-tZZTkLltl2zV-10">
          <mxGeometry x="0.218" y="-2" relative="1" as="geometry">
            <mxPoint as="offset" />
          </mxGeometry>
        </mxCell>
        <mxCell id="AsIc4sM-tZZTkLltl2zV-12" value="Kiểm tra có tài khoản &lt;br&gt;hay chưa" style="rhombus;whiteSpace=wrap;html=1;shadow=0;fontFamily=Helvetica;fontSize=12;align=center;strokeWidth=1;spacing=6;spacingTop=-4;" vertex="1" parent="1">
          <mxGeometry x="310.01" y="40" width="190.01" height="100" as="geometry" />
        </mxCell>
        <mxCell id="AsIc4sM-tZZTkLltl2zV-13" style="edgeStyle=orthogonalEdgeStyle;rounded=0;orthogonalLoop=1;jettySize=auto;html=1;entryX=0;entryY=0.5;entryDx=0;entryDy=0;" edge="1" parent="1" source="AsIc4sM-tZZTkLltl2zV-14" target="AsIc4sM-tZZTkLltl2zV-23">
          <mxGeometry relative="1" as="geometry">
            <Array as="points">
              <mxPoint x="225" y="350" />
            </Array>
          </mxGeometry>
        </mxCell>
        <mxCell id="AsIc4sM-tZZTkLltl2zV-14" value="Đăng kí tài khoản" style="rounded=1;whiteSpace=wrap;html=1;fontSize=12;glass=0;strokeWidth=1;shadow=0;" vertex="1" parent="1">
          <mxGeometry x="165" y="210" width="120" height="35" as="geometry" />
        </mxCell>
        <mxCell id="AsIc4sM-tZZTkLltl2zV-15" style="edgeStyle=orthogonalEdgeStyle;rounded=0;orthogonalLoop=1;jettySize=auto;html=1;entryX=0.5;entryY=0;entryDx=0;entryDy=0;" edge="1" parent="1" source="AsIc4sM-tZZTkLltl2zV-16" target="AsIc4sM-tZZTkLltl2zV-7">
          <mxGeometry relative="1" as="geometry" />
        </mxCell>
        <mxCell id="AsIc4sM-tZZTkLltl2zV-16" value="Kết nối tới SQL Server" style="rounded=1;whiteSpace=wrap;html=1;" vertex="1" parent="1">
          <mxGeometry x="345.01" y="-170" width="120" height="50" as="geometry" />
        </mxCell>
        <mxCell id="AsIc4sM-tZZTkLltl2zV-17" style="edgeStyle=orthogonalEdgeStyle;rounded=0;orthogonalLoop=1;jettySize=auto;html=1;entryX=0.5;entryY=0;entryDx=0;entryDy=0;" edge="1" parent="1" source="AsIc4sM-tZZTkLltl2zV-20" target="AsIc4sM-tZZTkLltl2zV-23">
          <mxGeometry relative="1" as="geometry" />
        </mxCell>
        <mxCell id="AsIc4sM-tZZTkLltl2zV-18" value="Không" style="edgeLabel;html=1;align=center;verticalAlign=middle;resizable=0;points=[];" vertex="1" connectable="0" parent="AsIc4sM-tZZTkLltl2zV-17">
          <mxGeometry x="-0.3229" y="-2" relative="1" as="geometry">
            <mxPoint x="1" y="4" as="offset" />
          </mxGeometry>
        </mxCell>
        <mxCell id="AsIc4sM-tZZTkLltl2zV-19" value="Có" style="edgeStyle=orthogonalEdgeStyle;rounded=0;orthogonalLoop=1;jettySize=auto;html=1;" edge="1" parent="1" source="AsIc4sM-tZZTkLltl2zV-20" target="AsIc4sM-tZZTkLltl2zV-22">
          <mxGeometry relative="1" as="geometry" />
        </mxCell>
        <mxCell id="AsIc4sM-tZZTkLltl2zV-20" value="Quên mật khẩu" style="rhombus;whiteSpace=wrap;html=1;" vertex="1" parent="1">
          <mxGeometry x="325.01" y="190" width="160" height="70" as="geometry" />
        </mxCell>
        <mxCell id="AsIc4sM-tZZTkLltl2zV-21" style="edgeStyle=orthogonalEdgeStyle;rounded=0;orthogonalLoop=1;jettySize=auto;html=1;entryX=1;entryY=0.5;entryDx=0;entryDy=0;" edge="1" parent="1" source="AsIc4sM-tZZTkLltl2zV-22" target="AsIc4sM-tZZTkLltl2zV-23">
          <mxGeometry relative="1" as="geometry">
            <Array as="points">
              <mxPoint x="625" y="350" />
            </Array>
          </mxGeometry>
        </mxCell>
        <mxCell id="AsIc4sM-tZZTkLltl2zV-22" value="Đổi lại mật khẩu" style="rounded=1;whiteSpace=wrap;html=1;" vertex="1" parent="1">
          <mxGeometry x="565" y="207.5" width="120" height="35" as="geometry" />
        </mxCell>
        <mxCell id="AsIc4sM-tZZTkLltl2zV-33" style="edgeStyle=orthogonalEdgeStyle;rounded=0;orthogonalLoop=1;jettySize=auto;html=1;entryX=0.5;entryY=0;entryDx=0;entryDy=0;" edge="1" parent="1" source="AsIc4sM-tZZTkLltl2zV-23" target="AsIc4sM-tZZTkLltl2zV-26">
          <mxGeometry relative="1" as="geometry" />
        </mxCell>
        <mxCell id="AsIc4sM-tZZTkLltl2zV-23" value="Đăng nhập" style="rounded=1;whiteSpace=wrap;html=1;" vertex="1" parent="1">
          <mxGeometry x="345.02" y="335" width="120" height="30" as="geometry" />
        </mxCell>
        <mxCell id="AsIc4sM-tZZTkLltl2zV-84" style="edgeStyle=orthogonalEdgeStyle;rounded=0;orthogonalLoop=1;jettySize=auto;html=1;entryX=0.5;entryY=0;entryDx=0;entryDy=0;" edge="1" parent="1" source="AsIc4sM-tZZTkLltl2zV-26" target="AsIc4sM-tZZTkLltl2zV-80">
          <mxGeometry relative="1" as="geometry" />
        </mxCell>
        <mxCell id="AsIc4sM-tZZTkLltl2zV-129" style="edgeStyle=orthogonalEdgeStyle;rounded=0;orthogonalLoop=1;jettySize=auto;html=1;entryX=0.5;entryY=0;entryDx=0;entryDy=0;" edge="1" parent="1" source="AsIc4sM-tZZTkLltl2zV-26" target="AsIc4sM-tZZTkLltl2zV-128">
          <mxGeometry relative="1" as="geometry" />
        </mxCell>
        <mxCell id="AsIc4sM-tZZTkLltl2zV-144" style="edgeStyle=orthogonalEdgeStyle;rounded=0;orthogonalLoop=1;jettySize=auto;html=1;entryX=0.5;entryY=0;entryDx=0;entryDy=0;" edge="1" parent="1" source="AsIc4sM-tZZTkLltl2zV-26" target="AsIc4sM-tZZTkLltl2zV-140">
          <mxGeometry relative="1" as="geometry" />
        </mxCell>
        <mxCell id="AsIc4sM-tZZTkLltl2zV-146" style="edgeStyle=orthogonalEdgeStyle;rounded=0;orthogonalLoop=1;jettySize=auto;html=1;" edge="1" parent="1" source="AsIc4sM-tZZTkLltl2zV-26" target="AsIc4sM-tZZTkLltl2zV-145">
          <mxGeometry relative="1" as="geometry" />
        </mxCell>
        <mxCell id="AsIc4sM-tZZTkLltl2zV-26" value="Trang chủ khách hàng" style="rounded=1;whiteSpace=wrap;html=1;" vertex="1" parent="1">
          <mxGeometry x="313.47" y="410" width="183.09" height="50" as="geometry" />
        </mxCell>
        <mxCell id="AsIc4sM-tZZTkLltl2zV-36" value="" style="endArrow=none;html=1;rounded=0;entryX=1;entryY=0.5;entryDx=0;entryDy=0;" edge="1" parent="1" target="AsIc4sM-tZZTkLltl2zV-7">
          <mxGeometry width="50" height="50" relative="1" as="geometry">
            <mxPoint x="560" y="-55" as="sourcePoint" />
            <mxPoint x="270" y="10" as="targetPoint" />
          </mxGeometry>
        </mxCell>
        <mxCell id="AsIc4sM-tZZTkLltl2zV-37" value="Lỗi" style="endArrow=none;html=1;rounded=0;" edge="1" parent="1">
          <mxGeometry width="50" height="50" relative="1" as="geometry">
            <mxPoint x="560" y="-220" as="sourcePoint" />
            <mxPoint x="560" y="-50" as="targetPoint" />
          </mxGeometry>
        </mxCell>
        <mxCell id="AsIc4sM-tZZTkLltl2zV-38" value="" style="endArrow=classic;html=1;rounded=0;entryX=1;entryY=0.5;entryDx=0;entryDy=0;" edge="1" parent="1" target="AsIc4sM-tZZTkLltl2zV-3">
          <mxGeometry width="50" height="50" relative="1" as="geometry">
            <mxPoint x="560" y="-220" as="sourcePoint" />
            <mxPoint x="270" y="10" as="targetPoint" />
          </mxGeometry>
        </mxCell>
        <mxCell id="AsIc4sM-tZZTkLltl2zV-49" style="edgeStyle=orthogonalEdgeStyle;rounded=0;orthogonalLoop=1;jettySize=auto;html=1;entryX=0.5;entryY=0;entryDx=0;entryDy=0;" edge="1" parent="1" source="AsIc4sM-tZZTkLltl2zV-42" target="AsIc4sM-tZZTkLltl2zV-45">
          <mxGeometry relative="1" as="geometry" />
        </mxCell>
        <mxCell id="AsIc4sM-tZZTkLltl2zV-50" style="edgeStyle=orthogonalEdgeStyle;rounded=0;orthogonalLoop=1;jettySize=auto;html=1;" edge="1" parent="1" source="AsIc4sM-tZZTkLltl2zV-42" target="AsIc4sM-tZZTkLltl2zV-44">
          <mxGeometry relative="1" as="geometry" />
        </mxCell>
        <mxCell id="AsIc4sM-tZZTkLltl2zV-42" value="Thêm món vào giỏ hàng" style="rounded=1;whiteSpace=wrap;html=1;" vertex="1" parent="1">
          <mxGeometry x="-1227" y="650" width="183.09" height="50" as="geometry" />
        </mxCell>
        <mxCell id="AsIc4sM-tZZTkLltl2zV-63" style="edgeStyle=orthogonalEdgeStyle;rounded=0;orthogonalLoop=1;jettySize=auto;html=1;entryX=0.5;entryY=0;entryDx=0;entryDy=0;" edge="1" parent="1" source="AsIc4sM-tZZTkLltl2zV-43" target="AsIc4sM-tZZTkLltl2zV-52">
          <mxGeometry relative="1" as="geometry" />
        </mxCell>
        <mxCell id="AsIc4sM-tZZTkLltl2zV-43" value="Đề xuất" style="rounded=1;whiteSpace=wrap;html=1;" vertex="1" parent="1">
          <mxGeometry x="-1470" y="790" width="123.09" height="50" as="geometry" />
        </mxCell>
        <mxCell id="AsIc4sM-tZZTkLltl2zV-62" style="edgeStyle=orthogonalEdgeStyle;rounded=0;orthogonalLoop=1;jettySize=auto;html=1;entryX=0.5;entryY=0;entryDx=0;entryDy=0;" edge="1" parent="1" source="AsIc4sM-tZZTkLltl2zV-44" target="AsIc4sM-tZZTkLltl2zV-52">
          <mxGeometry relative="1" as="geometry" />
        </mxCell>
        <mxCell id="AsIc4sM-tZZTkLltl2zV-44" value="Món mới" style="rounded=1;whiteSpace=wrap;html=1;" vertex="1" parent="1">
          <mxGeometry x="-940" y="790" width="136.91" height="50" as="geometry" />
        </mxCell>
        <mxCell id="AsIc4sM-tZZTkLltl2zV-69" style="edgeStyle=orthogonalEdgeStyle;rounded=0;orthogonalLoop=1;jettySize=auto;html=1;entryX=0.5;entryY=0;entryDx=0;entryDy=0;" edge="1" parent="1" source="AsIc4sM-tZZTkLltl2zV-45" target="AsIc4sM-tZZTkLltl2zV-52">
          <mxGeometry relative="1" as="geometry" />
        </mxCell>
        <mxCell id="AsIc4sM-tZZTkLltl2zV-45" value="Món đang giảm giá" style="rounded=1;whiteSpace=wrap;html=1;" vertex="1" parent="1">
          <mxGeometry x="-1127" y="740" width="140" height="50" as="geometry" />
        </mxCell>
        <mxCell id="AsIc4sM-tZZTkLltl2zV-70" style="edgeStyle=orthogonalEdgeStyle;rounded=0;orthogonalLoop=1;jettySize=auto;html=1;" edge="1" parent="1" source="AsIc4sM-tZZTkLltl2zV-46" target="AsIc4sM-tZZTkLltl2zV-52">
          <mxGeometry relative="1" as="geometry" />
        </mxCell>
        <mxCell id="AsIc4sM-tZZTkLltl2zV-46" value="Menu" style="rounded=1;whiteSpace=wrap;html=1;" vertex="1" parent="1">
          <mxGeometry x="-1297" y="740" width="123.09" height="50" as="geometry" />
        </mxCell>
        <mxCell id="AsIc4sM-tZZTkLltl2zV-47" style="edgeStyle=orthogonalEdgeStyle;rounded=0;orthogonalLoop=1;jettySize=auto;html=1;entryX=0.591;entryY=0.081;entryDx=0;entryDy=0;entryPerimeter=0;" edge="1" parent="1" source="AsIc4sM-tZZTkLltl2zV-42" target="AsIc4sM-tZZTkLltl2zV-46">
          <mxGeometry relative="1" as="geometry" />
        </mxCell>
        <mxCell id="AsIc4sM-tZZTkLltl2zV-48" style="edgeStyle=orthogonalEdgeStyle;rounded=0;orthogonalLoop=1;jettySize=auto;html=1;entryX=0.536;entryY=0.011;entryDx=0;entryDy=0;entryPerimeter=0;" edge="1" parent="1" source="AsIc4sM-tZZTkLltl2zV-42" target="AsIc4sM-tZZTkLltl2zV-43">
          <mxGeometry relative="1" as="geometry" />
        </mxCell>
        <mxCell id="AsIc4sM-tZZTkLltl2zV-71" style="edgeStyle=orthogonalEdgeStyle;rounded=0;orthogonalLoop=1;jettySize=auto;html=1;entryX=1;entryY=0.5;entryDx=0;entryDy=0;" edge="1" parent="1" source="AsIc4sM-tZZTkLltl2zV-52" target="AsIc4sM-tZZTkLltl2zV-66">
          <mxGeometry relative="1" as="geometry" />
        </mxCell>
        <mxCell id="AsIc4sM-tZZTkLltl2zV-72" style="edgeStyle=orthogonalEdgeStyle;rounded=0;orthogonalLoop=1;jettySize=auto;html=1;entryX=1;entryY=0.5;entryDx=0;entryDy=0;" edge="1" parent="1" source="AsIc4sM-tZZTkLltl2zV-52" target="AsIc4sM-tZZTkLltl2zV-65">
          <mxGeometry relative="1" as="geometry" />
        </mxCell>
        <mxCell id="AsIc4sM-tZZTkLltl2zV-73" style="edgeStyle=orthogonalEdgeStyle;rounded=0;orthogonalLoop=1;jettySize=auto;html=1;entryX=1;entryY=0.5;entryDx=0;entryDy=0;" edge="1" parent="1" source="AsIc4sM-tZZTkLltl2zV-52" target="AsIc4sM-tZZTkLltl2zV-64">
          <mxGeometry relative="1" as="geometry" />
        </mxCell>
        <mxCell id="AsIc4sM-tZZTkLltl2zV-52" value="Chọn món" style="rounded=1;whiteSpace=wrap;html=1;" vertex="1" parent="1">
          <mxGeometry x="-1227" y="830" width="183.09" height="50" as="geometry" />
        </mxCell>
        <mxCell id="AsIc4sM-tZZTkLltl2zV-78" style="edgeStyle=orthogonalEdgeStyle;rounded=0;orthogonalLoop=1;jettySize=auto;html=1;entryX=1;entryY=0.5;entryDx=0;entryDy=0;" edge="1" parent="1" source="AsIc4sM-tZZTkLltl2zV-64" target="AsIc4sM-tZZTkLltl2zV-74">
          <mxGeometry relative="1" as="geometry" />
        </mxCell>
        <mxCell id="AsIc4sM-tZZTkLltl2zV-64" value="Số lượng" style="rounded=1;whiteSpace=wrap;html=1;" vertex="1" parent="1">
          <mxGeometry x="-1457" y="1020" width="183.09" height="50" as="geometry" />
        </mxCell>
        <mxCell id="AsIc4sM-tZZTkLltl2zV-77" style="edgeStyle=orthogonalEdgeStyle;rounded=0;orthogonalLoop=1;jettySize=auto;html=1;entryX=1;entryY=0.5;entryDx=0;entryDy=0;" edge="1" parent="1" source="AsIc4sM-tZZTkLltl2zV-65" target="AsIc4sM-tZZTkLltl2zV-74">
          <mxGeometry relative="1" as="geometry" />
        </mxCell>
        <mxCell id="AsIc4sM-tZZTkLltl2zV-65" value="Ghi chú" style="rounded=1;whiteSpace=wrap;html=1;" vertex="1" parent="1">
          <mxGeometry x="-1457" y="960" width="183.09" height="50" as="geometry" />
        </mxCell>
        <mxCell id="AsIc4sM-tZZTkLltl2zV-76" style="edgeStyle=orthogonalEdgeStyle;rounded=0;orthogonalLoop=1;jettySize=auto;html=1;entryX=1;entryY=0.5;entryDx=0;entryDy=0;" edge="1" parent="1" source="AsIc4sM-tZZTkLltl2zV-66" target="AsIc4sM-tZZTkLltl2zV-74">
          <mxGeometry relative="1" as="geometry" />
        </mxCell>
        <mxCell id="AsIc4sM-tZZTkLltl2zV-66" value="Chọn size" style="rounded=1;whiteSpace=wrap;html=1;" vertex="1" parent="1">
          <mxGeometry x="-1457" y="900" width="183.09" height="50" as="geometry" />
        </mxCell>
        <mxCell id="AsIc4sM-tZZTkLltl2zV-74" value="Ấn thêm vào giỏ hàng" style="rounded=1;whiteSpace=wrap;html=1;" vertex="1" parent="1">
          <mxGeometry x="-1690" y="960" width="183.09" height="50" as="geometry" />
        </mxCell>
        <mxCell id="AsIc4sM-tZZTkLltl2zV-93" style="edgeStyle=orthogonalEdgeStyle;rounded=0;orthogonalLoop=1;jettySize=auto;html=1;entryX=0;entryY=0.5;entryDx=0;entryDy=0;" edge="1" parent="1" source="AsIc4sM-tZZTkLltl2zV-79" target="AsIc4sM-tZZTkLltl2zV-86">
          <mxGeometry relative="1" as="geometry" />
        </mxCell>
        <mxCell id="AsIc4sM-tZZTkLltl2zV-94" style="edgeStyle=orthogonalEdgeStyle;rounded=0;orthogonalLoop=1;jettySize=auto;html=1;entryX=0;entryY=0.5;entryDx=0;entryDy=0;" edge="1" parent="1" source="AsIc4sM-tZZTkLltl2zV-79" target="AsIc4sM-tZZTkLltl2zV-87">
          <mxGeometry relative="1" as="geometry" />
        </mxCell>
        <mxCell id="AsIc4sM-tZZTkLltl2zV-95" style="edgeStyle=orthogonalEdgeStyle;rounded=0;orthogonalLoop=1;jettySize=auto;html=1;entryX=0;entryY=0.5;entryDx=0;entryDy=0;" edge="1" parent="1" source="AsIc4sM-tZZTkLltl2zV-79" target="AsIc4sM-tZZTkLltl2zV-88">
          <mxGeometry relative="1" as="geometry" />
        </mxCell>
        <mxCell id="AsIc4sM-tZZTkLltl2zV-79" value="Giỏ hàng" style="rounded=1;whiteSpace=wrap;html=1;" vertex="1" parent="1">
          <mxGeometry x="-220" y="650" width="183.09" height="50" as="geometry" />
        </mxCell>
        <mxCell id="AsIc4sM-tZZTkLltl2zV-82" style="edgeStyle=orthogonalEdgeStyle;rounded=0;orthogonalLoop=1;jettySize=auto;html=1;entryX=0.5;entryY=0;entryDx=0;entryDy=0;" edge="1" parent="1" source="AsIc4sM-tZZTkLltl2zV-80" target="AsIc4sM-tZZTkLltl2zV-42">
          <mxGeometry relative="1" as="geometry" />
        </mxCell>
        <mxCell id="AsIc4sM-tZZTkLltl2zV-80" value="Đặt món" style="rounded=1;whiteSpace=wrap;html=1;" vertex="1" parent="1">
          <mxGeometry x="-730" y="520" width="183.09" height="50" as="geometry" />
        </mxCell>
        <mxCell id="AsIc4sM-tZZTkLltl2zV-83" style="edgeStyle=orthogonalEdgeStyle;rounded=0;orthogonalLoop=1;jettySize=auto;html=1;entryX=0.543;entryY=0.028;entryDx=0;entryDy=0;entryPerimeter=0;" edge="1" parent="1" source="AsIc4sM-tZZTkLltl2zV-80" target="AsIc4sM-tZZTkLltl2zV-79">
          <mxGeometry relative="1" as="geometry" />
        </mxCell>
        <mxCell id="AsIc4sM-tZZTkLltl2zV-99" style="edgeStyle=orthogonalEdgeStyle;rounded=0;orthogonalLoop=1;jettySize=auto;html=1;entryX=0;entryY=0.5;entryDx=0;entryDy=0;" edge="1" parent="1" source="AsIc4sM-tZZTkLltl2zV-86" target="AsIc4sM-tZZTkLltl2zV-89">
          <mxGeometry relative="1" as="geometry" />
        </mxCell>
        <mxCell id="AsIc4sM-tZZTkLltl2zV-86" value="Tăng/Giảm số lượng" style="rounded=1;whiteSpace=wrap;html=1;" vertex="1" parent="1">
          <mxGeometry x="-500" y="730" width="183.09" height="50" as="geometry" />
        </mxCell>
        <mxCell id="AsIc4sM-tZZTkLltl2zV-100" style="edgeStyle=orthogonalEdgeStyle;rounded=0;orthogonalLoop=1;jettySize=auto;html=1;entryX=0;entryY=0.5;entryDx=0;entryDy=0;" edge="1" parent="1" source="AsIc4sM-tZZTkLltl2zV-87" target="AsIc4sM-tZZTkLltl2zV-89">
          <mxGeometry relative="1" as="geometry" />
        </mxCell>
        <mxCell id="AsIc4sM-tZZTkLltl2zV-87" value="ÁP mã khuyến mãi (nếu có)" style="rounded=1;whiteSpace=wrap;html=1;" vertex="1" parent="1">
          <mxGeometry x="-500" y="790" width="183.09" height="50" as="geometry" />
        </mxCell>
        <mxCell id="AsIc4sM-tZZTkLltl2zV-101" style="edgeStyle=orthogonalEdgeStyle;rounded=0;orthogonalLoop=1;jettySize=auto;html=1;entryX=0;entryY=0.5;entryDx=0;entryDy=0;" edge="1" parent="1" source="AsIc4sM-tZZTkLltl2zV-88" target="AsIc4sM-tZZTkLltl2zV-89">
          <mxGeometry relative="1" as="geometry" />
        </mxCell>
        <mxCell id="AsIc4sM-tZZTkLltl2zV-88" value="Chọn số bàn" style="rounded=1;whiteSpace=wrap;html=1;" vertex="1" parent="1">
          <mxGeometry x="-500" y="850" width="183.09" height="50" as="geometry" />
        </mxCell>
        <mxCell id="AsIc4sM-tZZTkLltl2zV-103" style="edgeStyle=orthogonalEdgeStyle;rounded=0;orthogonalLoop=1;jettySize=auto;html=1;entryX=0.5;entryY=0;entryDx=0;entryDy=0;" edge="1" parent="1" source="AsIc4sM-tZZTkLltl2zV-89" target="AsIc4sM-tZZTkLltl2zV-102">
          <mxGeometry relative="1" as="geometry" />
        </mxCell>
        <mxCell id="AsIc4sM-tZZTkLltl2zV-89" value="Ấn xác nhận" style="rounded=1;whiteSpace=wrap;html=1;" vertex="1" parent="1">
          <mxGeometry x="-270" y="790" width="183.09" height="50" as="geometry" />
        </mxCell>
        <mxCell id="AsIc4sM-tZZTkLltl2zV-105" style="edgeStyle=orthogonalEdgeStyle;rounded=0;orthogonalLoop=1;jettySize=auto;html=1;entryX=0.5;entryY=0;entryDx=0;entryDy=0;" edge="1" parent="1" source="AsIc4sM-tZZTkLltl2zV-102" target="AsIc4sM-tZZTkLltl2zV-104">
          <mxGeometry relative="1" as="geometry" />
        </mxCell>
        <mxCell id="AsIc4sM-tZZTkLltl2zV-102" value="Thông báo đã làm xong nước" style="rounded=1;whiteSpace=wrap;html=1;" vertex="1" parent="1">
          <mxGeometry x="-270" y="880" width="183.09" height="50" as="geometry" />
        </mxCell>
        <mxCell id="AsIc4sM-tZZTkLltl2zV-107" value="Chưa" style="edgeStyle=orthogonalEdgeStyle;rounded=0;orthogonalLoop=1;jettySize=auto;html=1;entryX=0;entryY=0.5;entryDx=0;entryDy=0;" edge="1" parent="1" source="AsIc4sM-tZZTkLltl2zV-104" target="AsIc4sM-tZZTkLltl2zV-106">
          <mxGeometry relative="1" as="geometry" />
        </mxCell>
        <mxCell id="AsIc4sM-tZZTkLltl2zV-109" value="Rồi" style="edgeStyle=orthogonalEdgeStyle;rounded=0;orthogonalLoop=1;jettySize=auto;html=1;entryX=0.5;entryY=0;entryDx=0;entryDy=0;" edge="1" parent="1" source="AsIc4sM-tZZTkLltl2zV-104" target="AsIc4sM-tZZTkLltl2zV-108">
          <mxGeometry relative="1" as="geometry" />
        </mxCell>
        <mxCell id="AsIc4sM-tZZTkLltl2zV-104" value="Nhận nước" style="rhombus;whiteSpace=wrap;html=1;" vertex="1" parent="1">
          <mxGeometry x="-218.45000000000005" y="980" width="80" height="80" as="geometry" />
        </mxCell>
        <mxCell id="AsIc4sM-tZZTkLltl2zV-106" value="Ấn hỗ trợ" style="rounded=1;whiteSpace=wrap;html=1;" vertex="1" parent="1">
          <mxGeometry x="-30" y="995" width="183.09" height="50" as="geometry" />
        </mxCell>
        <mxCell id="AsIc4sM-tZZTkLltl2zV-111" style="edgeStyle=orthogonalEdgeStyle;rounded=0;orthogonalLoop=1;jettySize=auto;html=1;entryX=1;entryY=0.5;entryDx=0;entryDy=0;" edge="1" parent="1" source="AsIc4sM-tZZTkLltl2zV-108" target="AsIc4sM-tZZTkLltl2zV-110">
          <mxGeometry relative="1" as="geometry" />
        </mxCell>
        <mxCell id="AsIc4sM-tZZTkLltl2zV-108" value="Ấn xác nhận" style="rounded=1;whiteSpace=wrap;html=1;" vertex="1" parent="1">
          <mxGeometry x="-270" y="1130" width="183.09" height="50" as="geometry" />
        </mxCell>
        <mxCell id="AsIc4sM-tZZTkLltl2zV-117" style="edgeStyle=orthogonalEdgeStyle;rounded=0;orthogonalLoop=1;jettySize=auto;html=1;entryX=0;entryY=0.5;entryDx=0;entryDy=0;" edge="1" parent="1" source="AsIc4sM-tZZTkLltl2zV-110" target="AsIc4sM-tZZTkLltl2zV-113">
          <mxGeometry relative="1" as="geometry" />
        </mxCell>
        <mxCell id="AsIc4sM-tZZTkLltl2zV-118" style="edgeStyle=orthogonalEdgeStyle;rounded=0;orthogonalLoop=1;jettySize=auto;html=1;entryX=0;entryY=0.5;entryDx=0;entryDy=0;" edge="1" parent="1" source="AsIc4sM-tZZTkLltl2zV-110" target="AsIc4sM-tZZTkLltl2zV-112">
          <mxGeometry relative="1" as="geometry" />
        </mxCell>
        <mxCell id="AsIc4sM-tZZTkLltl2zV-110" value="Đánh giá" style="rounded=1;whiteSpace=wrap;html=1;" vertex="1" parent="1">
          <mxGeometry x="-520" y="1130" width="183.09" height="50" as="geometry" />
        </mxCell>
        <mxCell id="AsIc4sM-tZZTkLltl2zV-120" style="edgeStyle=orthogonalEdgeStyle;rounded=0;orthogonalLoop=1;jettySize=auto;html=1;entryX=0;entryY=0.5;entryDx=0;entryDy=0;" edge="1" parent="1" source="AsIc4sM-tZZTkLltl2zV-112" target="AsIc4sM-tZZTkLltl2zV-116">
          <mxGeometry relative="1" as="geometry" />
        </mxCell>
        <mxCell id="AsIc4sM-tZZTkLltl2zV-112" value="Nhận xét" style="rounded=1;whiteSpace=wrap;html=1;" vertex="1" parent="1">
          <mxGeometry x="-720" y="1270" width="183.09" height="50" as="geometry" />
        </mxCell>
        <mxCell id="AsIc4sM-tZZTkLltl2zV-119" style="edgeStyle=orthogonalEdgeStyle;rounded=0;orthogonalLoop=1;jettySize=auto;html=1;" edge="1" parent="1" source="AsIc4sM-tZZTkLltl2zV-113" target="AsIc4sM-tZZTkLltl2zV-116">
          <mxGeometry relative="1" as="geometry" />
        </mxCell>
        <mxCell id="AsIc4sM-tZZTkLltl2zV-113" value="Số sao" style="rounded=1;whiteSpace=wrap;html=1;" vertex="1" parent="1">
          <mxGeometry x="-720" y="1210" width="183.09" height="50" as="geometry" />
        </mxCell>
        <mxCell id="AsIc4sM-tZZTkLltl2zV-123" style="edgeStyle=orthogonalEdgeStyle;rounded=0;orthogonalLoop=1;jettySize=auto;html=1;entryX=0;entryY=0.5;entryDx=0;entryDy=0;" edge="1" parent="1" source="AsIc4sM-tZZTkLltl2zV-116" target="AsIc4sM-tZZTkLltl2zV-121">
          <mxGeometry relative="1" as="geometry" />
        </mxCell>
        <mxCell id="AsIc4sM-tZZTkLltl2zV-124" style="edgeStyle=orthogonalEdgeStyle;rounded=0;orthogonalLoop=1;jettySize=auto;html=1;" edge="1" parent="1" source="AsIc4sM-tZZTkLltl2zV-116" target="AsIc4sM-tZZTkLltl2zV-122">
          <mxGeometry relative="1" as="geometry" />
        </mxCell>
        <mxCell id="AsIc4sM-tZZTkLltl2zV-116" value="Ấn xác nhận" style="rounded=1;whiteSpace=wrap;html=1;" vertex="1" parent="1">
          <mxGeometry x="-480" y="1240" width="183.09" height="50" as="geometry" />
        </mxCell>
        <mxCell id="AsIc4sM-tZZTkLltl2zV-121" value="Lời cảm ơn" style="rounded=1;whiteSpace=wrap;html=1;" vertex="1" parent="1">
          <mxGeometry x="-230" y="1210" width="183.09" height="50" as="geometry" />
        </mxCell>
        <mxCell id="AsIc4sM-tZZTkLltl2zV-125" style="edgeStyle=orthogonalEdgeStyle;rounded=0;orthogonalLoop=1;jettySize=auto;html=1;entryX=0;entryY=1;entryDx=0;entryDy=0;" edge="1" parent="1" source="AsIc4sM-tZZTkLltl2zV-122" target="AsIc4sM-tZZTkLltl2zV-26">
          <mxGeometry relative="1" as="geometry" />
        </mxCell>
        <mxCell id="AsIc4sM-tZZTkLltl2zV-122" value="Ấn về trang chủ" style="rounded=1;whiteSpace=wrap;html=1;" vertex="1" parent="1">
          <mxGeometry x="-230" y="1270" width="183.09" height="50" as="geometry" />
        </mxCell>
        <mxCell id="AsIc4sM-tZZTkLltl2zV-126" value="" style="rounded=0;whiteSpace=wrap;html=1;fillColor=none;strokeColor=#2414ff;strokeWidth=3;" vertex="1" parent="1">
          <mxGeometry x="-1700" y="630" width="910" height="450" as="geometry" />
        </mxCell>
        <mxCell id="AsIc4sM-tZZTkLltl2zV-127" value="" style="rounded=0;whiteSpace=wrap;html=1;fillColor=none;strokeColor=#FF3912;strokeWidth=3;" vertex="1" parent="1">
          <mxGeometry x="-1720" y="510" width="1900" height="830" as="geometry" />
        </mxCell>
        <mxCell id="AsIc4sM-tZZTkLltl2zV-134" style="edgeStyle=orthogonalEdgeStyle;rounded=0;orthogonalLoop=1;jettySize=auto;html=1;entryX=1;entryY=0.5;entryDx=0;entryDy=0;" edge="1" parent="1" source="AsIc4sM-tZZTkLltl2zV-128" target="AsIc4sM-tZZTkLltl2zV-133">
          <mxGeometry relative="1" as="geometry" />
        </mxCell>
        <mxCell id="AsIc4sM-tZZTkLltl2zV-135" style="edgeStyle=orthogonalEdgeStyle;rounded=0;orthogonalLoop=1;jettySize=auto;html=1;entryX=1;entryY=0.5;entryDx=0;entryDy=0;" edge="1" parent="1" source="AsIc4sM-tZZTkLltl2zV-128" target="AsIc4sM-tZZTkLltl2zV-132">
          <mxGeometry relative="1" as="geometry" />
        </mxCell>
        <mxCell id="AsIc4sM-tZZTkLltl2zV-136" style="edgeStyle=orthogonalEdgeStyle;rounded=0;orthogonalLoop=1;jettySize=auto;html=1;entryX=1;entryY=0.5;entryDx=0;entryDy=0;" edge="1" parent="1" source="AsIc4sM-tZZTkLltl2zV-128" target="AsIc4sM-tZZTkLltl2zV-131">
          <mxGeometry relative="1" as="geometry" />
        </mxCell>
        <mxCell id="AsIc4sM-tZZTkLltl2zV-128" value="Mục yêu thích" style="rounded=1;whiteSpace=wrap;html=1;" vertex="1" parent="1">
          <mxGeometry x="640" y="510" width="183.09" height="50" as="geometry" />
        </mxCell>
        <mxCell id="AsIc4sM-tZZTkLltl2zV-130" value="" style="rounded=0;whiteSpace=wrap;html=1;fillColor=none;strokeColor=#FF3912;strokeWidth=3;" vertex="1" parent="1">
          <mxGeometry x="150" y="-250" width="550" height="630" as="geometry" />
        </mxCell>
        <mxCell id="AsIc4sM-tZZTkLltl2zV-131" value="Mã khuyến mãi đã nhận" style="rounded=1;whiteSpace=wrap;html=1;" vertex="1" parent="1">
          <mxGeometry x="400" y="650" width="183.09" height="50" as="geometry" />
        </mxCell>
        <mxCell id="AsIc4sM-tZZTkLltl2zV-132" value="Món mua gần đây" style="rounded=1;whiteSpace=wrap;html=1;" vertex="1" parent="1">
          <mxGeometry x="400" y="580" width="183.09" height="50" as="geometry" />
        </mxCell>
        <mxCell id="AsIc4sM-tZZTkLltl2zV-133" value="Món yêu&amp;nbsp;" style="rounded=1;whiteSpace=wrap;html=1;" vertex="1" parent="1">
          <mxGeometry x="400" y="510" width="183.09" height="50" as="geometry" />
        </mxCell>
        <mxCell id="AsIc4sM-tZZTkLltl2zV-137" style="edgeStyle=orthogonalEdgeStyle;rounded=0;orthogonalLoop=1;jettySize=auto;html=1;entryX=1;entryY=0.5;entryDx=0;entryDy=0;" edge="1" parent="1" source="AsIc4sM-tZZTkLltl2zV-140" target="AsIc4sM-tZZTkLltl2zV-143">
          <mxGeometry relative="1" as="geometry" />
        </mxCell>
        <mxCell id="AsIc4sM-tZZTkLltl2zV-138" style="edgeStyle=orthogonalEdgeStyle;rounded=0;orthogonalLoop=1;jettySize=auto;html=1;entryX=1;entryY=0.5;entryDx=0;entryDy=0;" edge="1" parent="1" source="AsIc4sM-tZZTkLltl2zV-140" target="AsIc4sM-tZZTkLltl2zV-142">
          <mxGeometry relative="1" as="geometry" />
        </mxCell>
        <mxCell id="AsIc4sM-tZZTkLltl2zV-140" value="Mục thông báo" style="rounded=1;whiteSpace=wrap;html=1;" vertex="1" parent="1">
          <mxGeometry x="1160" y="510" width="183.09" height="50" as="geometry" />
        </mxCell>
        <mxCell id="AsIc4sM-tZZTkLltl2zV-142" value="Mã khuyến mãi chưa nhận" style="rounded=1;whiteSpace=wrap;html=1;" vertex="1" parent="1">
          <mxGeometry x="920" y="580" width="183.09" height="50" as="geometry" />
        </mxCell>
        <mxCell id="AsIc4sM-tZZTkLltl2zV-143" value="Thông báo" style="rounded=1;whiteSpace=wrap;html=1;" vertex="1" parent="1">
          <mxGeometry x="920" y="510" width="183.09" height="50" as="geometry" />
        </mxCell>
        <mxCell id="AsIc4sM-tZZTkLltl2zV-152" style="edgeStyle=orthogonalEdgeStyle;rounded=0;orthogonalLoop=1;jettySize=auto;html=1;" edge="1" parent="1" source="AsIc4sM-tZZTkLltl2zV-145" target="AsIc4sM-tZZTkLltl2zV-147">
          <mxGeometry relative="1" as="geometry" />
        </mxCell>
        <mxCell id="AsIc4sM-tZZTkLltl2zV-153" style="edgeStyle=orthogonalEdgeStyle;rounded=0;orthogonalLoop=1;jettySize=auto;html=1;" edge="1" parent="1" source="AsIc4sM-tZZTkLltl2zV-145" target="AsIc4sM-tZZTkLltl2zV-148">
          <mxGeometry relative="1" as="geometry" />
        </mxCell>
        <mxCell id="AsIc4sM-tZZTkLltl2zV-154" value="" style="edgeStyle=orthogonalEdgeStyle;rounded=0;orthogonalLoop=1;jettySize=auto;html=1;" edge="1" parent="1" source="AsIc4sM-tZZTkLltl2zV-145" target="AsIc4sM-tZZTkLltl2zV-149">
          <mxGeometry relative="1" as="geometry" />
        </mxCell>
        <mxCell id="AsIc4sM-tZZTkLltl2zV-156" style="edgeStyle=orthogonalEdgeStyle;rounded=0;orthogonalLoop=1;jettySize=auto;html=1;" edge="1" parent="1" source="AsIc4sM-tZZTkLltl2zV-145" target="AsIc4sM-tZZTkLltl2zV-150">
          <mxGeometry relative="1" as="geometry" />
        </mxCell>
        <mxCell id="AsIc4sM-tZZTkLltl2zV-157" style="edgeStyle=orthogonalEdgeStyle;rounded=0;orthogonalLoop=1;jettySize=auto;html=1;" edge="1" parent="1" source="AsIc4sM-tZZTkLltl2zV-145" target="AsIc4sM-tZZTkLltl2zV-151">
          <mxGeometry relative="1" as="geometry" />
        </mxCell>
        <mxCell id="AsIc4sM-tZZTkLltl2zV-145" value="Cá nhân" style="rounded=1;whiteSpace=wrap;html=1;" vertex="1" parent="1">
          <mxGeometry x="1953" y="500" width="183.09" height="50" as="geometry" />
        </mxCell>
        <mxCell id="AsIc4sM-tZZTkLltl2zV-166" style="edgeStyle=orthogonalEdgeStyle;rounded=0;orthogonalLoop=1;jettySize=auto;html=1;entryX=1;entryY=0.5;entryDx=0;entryDy=0;" edge="1" parent="1" source="AsIc4sM-tZZTkLltl2zV-147" target="AsIc4sM-tZZTkLltl2zV-158">
          <mxGeometry relative="1" as="geometry" />
        </mxCell>
        <mxCell id="AsIc4sM-tZZTkLltl2zV-167" style="edgeStyle=orthogonalEdgeStyle;rounded=0;orthogonalLoop=1;jettySize=auto;html=1;entryX=1;entryY=0.5;entryDx=0;entryDy=0;" edge="1" parent="1" source="AsIc4sM-tZZTkLltl2zV-147" target="AsIc4sM-tZZTkLltl2zV-159">
          <mxGeometry relative="1" as="geometry" />
        </mxCell>
        <mxCell id="AsIc4sM-tZZTkLltl2zV-168" style="edgeStyle=orthogonalEdgeStyle;rounded=0;orthogonalLoop=1;jettySize=auto;html=1;entryX=1;entryY=0.5;entryDx=0;entryDy=0;" edge="1" parent="1" source="AsIc4sM-tZZTkLltl2zV-147" target="AsIc4sM-tZZTkLltl2zV-160">
          <mxGeometry relative="1" as="geometry" />
        </mxCell>
        <mxCell id="AsIc4sM-tZZTkLltl2zV-169" style="edgeStyle=orthogonalEdgeStyle;rounded=0;orthogonalLoop=1;jettySize=auto;html=1;entryX=1;entryY=0.5;entryDx=0;entryDy=0;" edge="1" parent="1" source="AsIc4sM-tZZTkLltl2zV-147" target="AsIc4sM-tZZTkLltl2zV-161">
          <mxGeometry relative="1" as="geometry" />
        </mxCell>
        <mxCell id="AsIc4sM-tZZTkLltl2zV-147" value="Thông tin cá nhân" style="rounded=1;whiteSpace=wrap;html=1;" vertex="1" parent="1">
          <mxGeometry x="1510" y="590" width="183.09" height="50" as="geometry" />
        </mxCell>
        <mxCell id="AsIc4sM-tZZTkLltl2zV-148" value="Đóng góp ý kiến" style="rounded=1;whiteSpace=wrap;html=1;" vertex="1" parent="1">
          <mxGeometry x="1730" y="590" width="183.09" height="50" as="geometry" />
        </mxCell>
        <mxCell id="AsIc4sM-tZZTkLltl2zV-149" value="Trợ giúp" style="rounded=1;whiteSpace=wrap;html=1;" vertex="1" parent="1">
          <mxGeometry x="1953.45" y="590" width="183.09" height="50" as="geometry" />
        </mxCell>
        <mxCell id="AsIc4sM-tZZTkLltl2zV-150" value="Đăng xuất" style="rounded=1;whiteSpace=wrap;html=1;" vertex="1" parent="1">
          <mxGeometry x="2180" y="590" width="183.09" height="50" as="geometry" />
        </mxCell>
        <mxCell id="AsIc4sM-tZZTkLltl2zV-151" value="Địa chỉ quán" style="rounded=1;whiteSpace=wrap;html=1;" vertex="1" parent="1">
          <mxGeometry x="2410" y="590" width="183.09" height="50" as="geometry" />
        </mxCell>
        <mxCell id="AsIc4sM-tZZTkLltl2zV-158" value="Tên tài khoản" style="rounded=1;whiteSpace=wrap;html=1;" vertex="1" parent="1">
          <mxGeometry x="1390" y="680" width="183.09" height="50" as="geometry" />
        </mxCell>
        <mxCell id="AsIc4sM-tZZTkLltl2zV-159" value="Email" style="rounded=1;whiteSpace=wrap;html=1;" vertex="1" parent="1">
          <mxGeometry x="1390" y="740" width="183.09" height="50" as="geometry" />
        </mxCell>
        <mxCell id="AsIc4sM-tZZTkLltl2zV-160" value="Số điện thoại" style="rounded=1;whiteSpace=wrap;html=1;" vertex="1" parent="1">
          <mxGeometry x="1390" y="800" width="183.09" height="50" as="geometry" />
        </mxCell>
        <mxCell id="AsIc4sM-tZZTkLltl2zV-161" value="Đổi mật khẩu" style="rounded=1;whiteSpace=wrap;html=1;" vertex="1" parent="1">
          <mxGeometry x="1390" y="860" width="183.09" height="50" as="geometry" />
        </mxCell>
        <mxCell id="AsIc4sM-tZZTkLltl2zV-170" value="" style="rounded=0;whiteSpace=wrap;html=1;fillColor=none;strokeColor=#FF3912;strokeWidth=3;" vertex="1" parent="1">
          <mxGeometry x="390" y="500" width="450" height="220" as="geometry" />
        </mxCell>
        <mxCell id="AsIc4sM-tZZTkLltl2zV-171" value="" style="rounded=0;whiteSpace=wrap;html=1;fillColor=none;strokeColor=#FF3912;strokeWidth=3;" vertex="1" parent="1">
          <mxGeometry x="910" y="500" width="450" height="140" as="geometry" />
        </mxCell>
        <mxCell id="AsIc4sM-tZZTkLltl2zV-172" value="" style="rounded=0;whiteSpace=wrap;html=1;fillColor=none;strokeColor=#FF3912;strokeWidth=3;" vertex="1" parent="1">
          <mxGeometry x="1376.54" y="490" width="1223.46" height="430" as="geometry" />
        </mxCell>
        <mxCell id="AsIc4sM-tZZTkLltl2zV-173" value="" style="rounded=0;whiteSpace=wrap;html=1;fillColor=none;strokeColor=#2414ff;strokeWidth=3;" vertex="1" parent="1">
          <mxGeometry x="-745" y="640" width="910" height="690" as="geometry" />
        </mxCell>
      </root>
    </mxGraphModel>
  </diagram>
</mxfile>
